<?xml version="1.0" encoding="UTF-8" standalone="no"?>
<!-- Created with Inkscape (http://www.inkscape.org/) -->

<svg
   version="1.1"
   id="svg1"
   width="793.70667"
   height="1122.52"
   viewBox="0 0 793.70667 1122.52"
   sodipodi:docname="vn2.eps"
   xmlns:inkscape="http://www.inkscape.org/namespaces/inkscape"
   xmlns:sodipodi="http://sodipodi.sourceforge.net/DTD/sodipodi-0.dtd"
   xmlns="http://www.w3.org/2000/svg"
   xmlns:svg="http://www.w3.org/2000/svg">
  <defs
     id="defs1" />
  <sodipodi:namedview
     id="namedview1"
     pagecolor="#ffffff"
     bordercolor="#000000"
     borderopacity="0.25"
     inkscape:showpageshadow="2"
     inkscape:pageopacity="0.0"
     inkscape:pagecheckerboard="0"
     inkscape:deskcolor="#d1d1d1">
    <inkscape:page
       x="0"
       y="0"
       inkscape:label="1"
       id="page1"
       width="793.70667"
       height="1122.52"
       margin="0"
       bleed="0" />
  </sodipodi:namedview>
  <g
     id="g1"
     inkscape:groupmode="layer"
     inkscape:label="1">
    <g
       id="group-R5">
      <path
         id="path2"
         d="M 5952.76,0 H 0 V 8418.9 H 5952.76 V 0"
         style="fill:#828588;fill-opacity:1;fill-rule:nonzero;stroke:none"
         transform="matrix(0.13333333,0,0,-0.13333333,0,1122.52)" />
      <path
         id="path3"
         d="m 1381.76,1416.92 c 3.17,1.76 29.24,-6.35 28.19,-7.4 -1.06,-1.06 -37.35,-16.21 -38.76,-19.03 -1.41,-2.82 -2.82,-10.92 -1.76,-13.39 1.05,-2.46 -2.47,-9.86 -2.47,-9.86 0,0 -24.66,3.87 -26.42,2.11 -1.77,-1.76 22.19,-36.99 44.39,-38.05 22.2,-1.06 68.7,4.93 89.14,17.97 20.43,13.04 31.71,15.15 40.16,29.6 8.46,14.44 2.12,25.01 24.67,33.47 22.55,8.45 57.78,31.71 68,62.36 10.21,30.65 30.65,71.52 80.33,88.79 49.68,17.26 81.56,47.91 111.69,55.31 30.12,7.4 68.7,-1.06 98.3,21.14 29.59,22.2 29.06,34.35 38.05,49.15 8.98,14.8 23.25,21.14 30.12,32.24 6.87,11.1 16.39,41.75 30.65,24.31 14.27,-17.44 41.23,-21.67 61.31,-9.51 20.08,12.15 35.94,43.33 30.65,61.3 -5.28,17.97 -20.61,30.13 -25.89,43.34 -5.29,13.21 8.98,23.78 21.66,10.57 12.69,-13.21 36.47,-22.73 45.98,0.53 9.52,23.25 0,59.19 0,59.19 0,0 38.58,29.07 42.28,45.45 3.7,16.38 -7.4,36.99 -6.87,44.92 0.53,7.93 4.23,15.33 3.7,25.9 -0.53,10.57 4.76,44.92 1.06,57.07 -3.7,12.16 15.15,16.74 35.58,17.44 20.44,0.71 59.9,1.06 67.65,-17.44 7.75,-18.49 17.62,-20.61 17.62,-20.61 0,0 17.61,23.96 38.75,28.19 21.14,4.23 52.15,15.5 76.81,18.32 24.67,2.82 47.21,19.03 75.4,33.82 28.19,14.8 50.74,27.49 71.17,33.12 20.44,5.64 17.62,28.19 45.8,30.3 28.19,2.12 44.4,-16.91 58.49,0 14.09,16.92 3.52,60.6 34.53,78.93 31,18.32 64.83,28.18 72.58,20.43 7.75,-7.75 8.45,-8.46 10.57,-9.16 2.11,-0.7 -1.41,37.35 26.78,28.89 28.18,-8.46 38.75,17.62 53.55,38.05 14.8,20.44 27.48,35.24 54.26,36.64 26.78,1.41 37.35,2.12 37.35,2.12 0,0 10.57,43.69 51.44,56.37 40.87,12.69 54.96,35.94 69.05,59.9 14.09,23.96 52.85,38.05 59.19,60.6 6.35,22.55 6.35,23.96 17.62,40.16 11.27,16.21 21.84,45.81 18.32,58.49 -3.52,12.68 14.45,26.78 4.58,40.52 -9.86,13.74 -38.4,27.83 -36.29,71.87 2.12,44.04 5.29,58.84 29.6,83.15 24.31,24.31 21.67,26.96 17.44,44.92 -4.23,17.97 -10.04,21.67 -10.04,21.67 0,0 -16.92,-2.64 -16.92,9.52 0,12.15 1.59,23.78 1.59,23.78 l -11.63,-8.46 c 0,0 -10.04,12.69 5.82,34.88 0,0 28.53,42.28 59.19,69.24 30.65,26.95 35.94,25.89 39.63,34.88 3.7,8.98 -45.45,52.32 -52.32,66.06 -6.87,13.74 -14.79,49.68 -23.25,85.61 -8.46,35.94 -20.08,47.04 -12.16,68.18 7.93,21.14 15.33,43.34 9.52,51.79 -5.82,8.46 -29.07,67.12 -17.97,76.11 11.1,8.98 19.02,6.34 22.2,22.72 3.17,16.38 7.92,21.14 -1.59,43.87 -9.51,22.72 -24.31,122.08 -28.01,132.65 -3.7,10.57 -35.94,44.39 -34.88,66.06 1.06,21.67 5.81,28.01 -4.76,45.98 -10.57,17.97 -20.08,32.76 -15.85,48.09 4.23,15.33 5.81,34.88 -21.14,77.16 -26.96,42.28 -55.49,96.19 -50.21,130.01 5.29,33.82 22.2,52.32 22.73,53.91 0.52,1.58 -24.31,0 -27.49,20.61 -3.17,20.61 -19.02,29.59 -19.02,29.59 0,0 -1.59,16.39 -1.59,19.56 0,3.17 -10.57,-10.04 -22.19,-10.04 -11.63,0 -24.84,12.15 -41.75,26.95 -16.92,14.8 -84.56,132.12 -106.23,156.43 -21.67,24.31 -47.57,61.84 -52.85,73.99 -5.29,12.16 -0.53,25.11 -4.76,39.9 -4.23,14.8 -15.85,16.39 -15.85,16.39 0,0 -5.02,-8.72 -1.59,-13.48 3.44,-4.76 0.79,-6.87 -0.26,-8.19 -1.06,-1.32 -8.19,-3.17 -8.19,-3.17 0,0 -16.65,6.87 -25.64,37.26 -8.98,30.39 -34.79,50.73 -70.37,70.82 -35.59,20.08 -53.21,47.91 -78.93,65.88 -25.72,17.97 -104.99,58.49 -141.98,91.61 -37,33.12 -111.69,96.18 -115.57,116.97 -3.87,20.79 1.41,32.06 -4.23,39.46 -5.63,7.4 -108.16,77.87 -147.27,113.8 -39.11,35.94 -59.9,44.4 -71.87,81.74 -11.98,37.35 -9.87,45.45 -26.43,64.83 -16.56,19.38 -17.62,54.61 -5.28,76.46 12.33,21.84 15.5,25.72 -2.47,50.73 -17.97,25.02 -19.38,38.76 -19.38,43.34 0,4.58 -5.28,-11.27 -24.31,0 -19.03,11.27 -52.14,57.78 -78.92,64.12 -26.78,6.35 -38.05,8.46 -76.81,55.32 -38.76,46.86 -60.25,67.29 -68,110.28 -7.75,42.98 -22.2,69.05 -42.28,84.91 -20.08,15.85 -42.63,52.14 -30.65,76.46 11.98,24.31 26.42,18.32 34.53,27.12 8.1,8.81 6.34,31.01 9.51,46.51 3.17,15.5 41.22,33.47 32.77,49.68 -8.46,16.21 -18.32,31.71 -10.57,41.93 7.75,10.21 9.51,35.23 12.33,67.64 2.82,32.42 13.03,52.15 26.78,68.36 13.74,16.2 12.68,26.77 20.43,53.2 7.75,26.42 22.55,45.45 32.42,44.74 9.86,-0.7 5.98,-6.34 20.43,-18.67 14.45,-12.33 36.99,12.68 47.56,30.65 10.57,17.97 47.92,71.88 84.92,87.38 36.99,15.5 57.07,11.63 68.7,8.1 11.63,-3.52 16.21,2.47 10.92,38.76 -5.28,36.29 0,44.04 -1.05,63.07 -1.06,19.02 -13.75,33.82 -2.82,45.8 10.92,11.98 20.78,20.08 34.17,29.24 13.39,9.16 61.84,24.49 65.54,55.14 3.7,30.66 14.27,67.65 43.86,71.88 29.6,4.23 87.2,-6.34 114.16,8.98 26.95,15.33 54.43,14.27 55.49,43.34 1.05,29.07 -12.69,76.1 9.51,87.73 22.2,11.63 58.13,19.03 68.18,22.72 10.04,3.7 34.88,35.94 50.73,43.34 15.86,7.4 21.14,0.53 30.65,18.5 9.52,17.97 3.18,30.65 30.66,28.01 27.48,-2.64 45.98,-6.18 54.43,0.35 8.46,6.52 11.63,12.86 11.63,12.86 0,0 -29.6,5.81 -47.04,30.12 -17.44,24.32 -25.89,20.09 -64.47,5.82 -38.58,-14.27 -80.33,-31.18 -90.38,-8.99 -10.04,22.2 -12.15,36.88 -31.71,20.56 -19.55,-16.33 -16.91,-16.33 -16.91,-16.33 0,0 1.59,33.3 -17.97,44.92 -19.55,11.63 -26.42,5.82 -36.46,0 -10.04,-5.81 -33.3,14.8 -55.49,29.6 -22.2,14.8 -58.14,2.11 -39.64,22.2 18.5,20.08 39.11,33.82 16.91,42.28 -22.2,8.45 -41.75,-6.87 -41.75,-6.87 0,0 5.28,18.49 -14.8,23.78 -20.08,5.28 -24.84,-3.17 -51.79,5.81 -26.95,8.99 -31.71,-8.45 -34.88,21.67 -3.17,30.12 -4.76,48.62 0,70.29 4.76,21.67 6.87,43.34 0.53,50.73 -6.34,7.4 -54.97,17.97 -60.25,19.03 -5.29,1.06 7.93,28.54 14.8,60.78 6.87,32.24 2.64,51.26 21.66,39.11 19.03,-12.16 28.54,-23.79 37,3.17 8.46,26.95 -6.87,29.06 15.33,54.43 22.19,25.37 33.29,24.84 25.36,35.94 -7.92,11.1 -26.42,0 -26.42,0 0,0 -16.91,32.24 -26.43,33.82 -9.51,1.59 -16.38,-7.4 -16.38,-7.4 0,0 -11.63,15.33 -35.41,19.56 -23.78,4.23 -24.84,-1.59 -47.03,-7.93 -22.2,-6.34 -48.1,-9.51 -58.67,-11.1 -10.57,-1.58 -7.92,2.64 -24.31,23.26 -16.38,20.61 -38.05,31.71 -63.42,30.12 -25.36,-1.59 -18.49,-7.4 -42.28,-17.44 -23.78,-10.04 -43.33,-7.4 -43.33,-7.4 0,0 -34.36,36.47 -52.32,48.09 -17.97,11.63 -69.24,11.63 -69.24,11.63 0,0 6.35,21.67 -2.64,38.58 -8.98,16.91 -16.38,19.03 -36.99,37 -20.61,17.96 -25.9,17.44 -35.94,32.76 -10.04,15.33 -16.91,32.77 -24.84,29.07 -7.93,-3.7 -23.25,-20.08 -29.6,-32.24 -6.34,-12.15 -5.28,-23.78 -12.68,-24.31 -7.4,-0.53 -17.97,6.34 -17.97,7.93 0,1.58 -5.28,-5.82 -10.04,-11.1 -4.76,-5.29 -28.54,-1.06 -28.54,-1.06 0,0 -15.85,-9.51 -16.91,-11.09 -1.06,-1.59 -19.55,-14.27 -22.73,-18.5 -3.17,-4.23 -5.81,-12.16 -8.98,-16.39 -3.17,-4.22 -23.25,-2.64 -26.42,-6.34 -3.18,-3.7 -22.73,-6.87 -25.37,-16.38 -2.64,-9.51 -7.4,-22.2 -2.64,-33.3 4.75,-11.1 15.85,-23.25 13.21,-32.76 -2.65,-9.52 -1.59,-15.33 -11.63,-19.56 -10.04,-4.23 -24.84,-15.85 -37.52,-21.14 -12.69,-5.28 -14.8,-7.93 -30.66,-5.28 -15.85,2.64 -53.9,-15.86 -66.59,-30.13 -12.68,-14.27 -26.42,-21.14 -31.71,-26.95 -5.28,-5.81 -12.68,-7.93 -12.68,-7.93 0,0 -26.95,11.63 -36.46,28.01 -9.52,16.39 -7.4,29.6 -12.16,33.83 -4.76,4.22 -38.05,-9.52 -50.74,-20.61 -12.68,-11.1 -28.36,2.29 -36.81,-44.22 -8.46,-46.51 -20.44,-81.04 -20.44,-81.04 0,0 -19.73,15.5 -59.191,54.26 -39.461,38.76 -81.739,72.58 -81.739,72.58 0,0 -19.73,-14.09 -23.254,-36.64 -3.523,-22.55 3.524,-20.44 -7.046,-31.71 -10.571,-11.28 -10.571,-11.28 -10.571,-11.28 0,0 -28.89,19.03 -35.234,47.92 -6.34,28.89 -27.481,37.35 -33.117,35.94 -5.637,-1.41 -24.664,-23.26 -27.485,-40.17 -2.816,-16.91 -13.386,-8.45 -27.48,-23.25 -14.094,-14.8 -18.32,-19.73 -20.434,-31.01 -2.113,-11.27 -3.523,-9.16 -20.437,-25.36 -16.91,-16.21 -21.844,-28.19 -22.547,-31.71 -0.703,-3.53 -36.289,-0.71 -53.906,22.19 -17.618,22.91 -19.028,43.69 -36.996,52.15 -17.969,8.45 -40.516,23.96 -48.27,27.13 -7.75,3.17 -10.215,7.75 -10.215,7.75 l -14.801,-2.82 -14.445,15.86 -16.559,-12.69 c 0,0 -19.378,21.85 -24.664,27.13 -5.285,5.29 -10.214,7.05 -10.214,7.05 0,0 -12.684,-6.34 -19.379,-22.55 -6.696,-16.21 -17.266,-22.9 -18.672,-23.61 -1.41,-0.7 -4.934,-4.23 0,-13.03 4.929,-8.81 2.465,-9.52 -12.688,-26.78 -15.148,-17.27 -47.562,-43.69 -46.152,-56.37 1.406,-12.69 -41.574,-2.65 -46.859,-12.69 -5.286,-10.04 72.402,-97.24 83.5,-106.75 11.097,-9.52 62.363,-61.31 62.363,-61.31 0,0 1.586,-20.61 1.586,-22.2 0,-1.58 9.511,-10.04 27.48,-24.83 17.969,-14.8 26.426,-13.75 30.653,-43.87 4.226,-30.12 -1.586,-95.66 35.937,-73.46 37.524,22.2 39.637,67.65 39.637,67.65 0,0 -10.039,-52.85 22.199,-46.51 32.238,6.34 35.406,12.15 36.465,9.51 1.058,-2.64 8.457,-37.52 1.586,-60.77 -6.871,-23.26 -42.281,-47.04 -39.637,-61.31 2.641,-14.27 0.527,-17.97 2.113,-24.84 1.586,-6.87 -4.757,-89.31 34.352,-126.31 39.109,-36.99 46.508,-65.53 51.266,-73.99 4.753,-8.45 39.109,-6.34 42.277,-7.93 3.172,-1.58 10.57,-7.39 12.683,-17.44 2.114,-10.04 0,-13.21 3.7,-15.85 3.699,-2.64 32.765,-2.64 38.05,-6.87 5.286,-4.23 12.688,-14.8 20.086,-11.63 7.399,3.17 33.825,16.39 35.407,15.33 1.586,-1.06 0.531,-19.03 8.457,-24.31 7.929,-5.29 30.828,-2.82 38.933,-9.87 8.102,-7.04 12.684,-23.25 27.832,-27.13 15.153,-3.87 34.176,-2.46 35.235,17.27 1.058,19.73 16.91,64.83 41.574,71.52 24.661,6.69 67.291,1.76 74.341,17.26 7.05,15.51 7.05,28.19 38.05,16.56 31.01,-11.62 51.09,-13.38 73.29,-35.58 22.19,-22.2 59.54,-42.63 64.83,-54.61 5.28,-11.98 -1.77,-20.09 18.67,-22.9 20.43,-2.82 31.71,3.87 34.53,-11.63 2.82,-15.5 7.4,-20.79 -13.39,-29.95 -20.79,-9.16 -68,-40.16 -73.99,-52.85 -5.99,-12.68 -8.46,-12.68 0,-25.01 8.46,-12.33 28.19,-30.3 36.29,-23.96 8.1,6.34 31,28.54 48.27,32.76 17.26,4.23 26.07,12.34 31.71,4.94 5.64,-7.4 4.93,-27.13 -6.7,-32.42 -11.62,-5.28 -21.49,0.36 -22.9,-16.56 -1.41,-16.91 -16.56,-38.75 16.91,-49.67 33.48,-10.93 50.74,-3.18 57.79,-16.21 7.04,-13.04 14.09,-20.79 32.06,-17.27 17.97,3.53 21.84,-1.05 27.48,-10.21 5.64,-9.16 13.74,-19.03 -5.64,-44.4 -19.38,-25.36 -31.35,-21.14 -35.93,-44.04 -4.59,-22.9 4.58,-49.32 -13.39,-54.61 -17.97,-5.28 -27.49,-4.58 -37,-15.85 -9.51,-11.28 -19.38,-13.39 -27.13,-30.3 -7.75,-16.92 -21.84,-26.43 -38.75,-22.55 -16.92,3.87 -44.04,34.17 -60.96,31 -16.91,-3.17 -7.4,-16.21 -35.58,-7.05 -28.19,9.17 -35.94,16.92 -42.28,11.98 -6.34,-4.93 -22.2,-18.32 -28.54,-18.67 -6.34,-0.35 -31.36,5.99 -31.36,5.99 0,0 -4.4,-13.74 4.58,-37.52 8.99,-23.79 29.07,-16.91 6.87,-46.51 -22.19,-29.6 -28.54,-38.05 -50.2,-50.21 -21.67,-12.15 -28.54,-22.19 -28.54,-22.19 0,0 21.14,-33.83 44.39,-33.83 23.26,0 41.75,7.93 59.19,-11.62 17.44,-19.56 37.53,-41.23 53.38,-43.87 15.86,-2.64 30.65,-10.57 43.34,-25.37 12.68,-14.8 20.08,-30.65 34.35,-23.78 14.27,6.87 23.25,-3.7 27.48,-13.21 4.23,-9.51 39.46,-47.04 72.23,-58.66 32.76,-11.63 67.65,-9.87 71.17,-12.34 3.52,-2.46 8.1,-12.68 14.09,-16.2 5.99,-3.53 28.19,1.76 34.88,-1.76 6.7,-3.53 -3.17,-8.81 16.56,-11.28 19.73,-2.47 38.05,-3.17 40.52,-10.92 2.47,-7.75 12.33,-19.03 2.82,-29.6 -9.51,-10.57 -32.77,-41.92 -29.24,-61.65 3.52,-19.74 27.12,-41.58 27.12,-41.58 0,0 -1.4,-19.73 9.17,-28.54 10.57,-8.81 35.58,-22.9 43.33,-23.96 7.75,-1.05 9.51,-1.05 9.51,-1.05 0,0 -12.33,-7.75 2.12,-20.09 14.44,-12.33 20.79,-20.43 34.88,-13.74 14.09,6.7 30.3,11.98 34.53,5.29 4.23,-6.7 4.58,-20.09 17.97,-39.82 13.38,-19.73 18.67,-30.65 25.01,-38.05 6.34,-7.4 14.45,-11.62 13.39,-14.79 -1.06,-3.18 -22.9,-24.67 -6.34,-35.94 16.56,-11.28 20.79,-6.7 20.08,-18.68 -0.7,-11.98 6.7,-27.48 21.49,-41.57 14.8,-14.09 96.19,-97.24 112.04,-118.74 15.86,-21.49 70.12,-81.38 85.44,-84.03 15.33,-2.64 24.31,37 30.66,10.05 6.34,-26.96 3.17,-24.84 14.27,-43.34 11.09,-18.5 26.42,-36.47 35.4,-57.61 8.99,-21.14 6.87,-19.02 28.54,-22.72 21.67,-3.7 19.03,-5.29 17.44,-14.27 -1.58,-8.99 -17.97,-6.34 -8.45,-22.2 9.51,-15.85 14.8,-5.81 13.74,-45.98 -1.06,-40.16 3.17,-66.06 22.72,-76.1 19.56,-10.04 21.67,-14.27 21.67,-14.27 0,0 -16.38,-42.81 10.04,-52.85 26.43,-10.04 45.98,34.88 60.25,34.88 14.27,0 23.78,-3.7 23.26,-30.12 -0.53,-26.43 7.92,-33.83 16.91,-38.58 8.98,-4.76 12.68,-9.52 12.68,-11.1 0,-1.59 -15.85,-9.51 2.64,-12.69 18.5,-3.17 44.4,9.52 57.08,-4.75 12.68,-14.27 12.68,-31.71 13.21,-37.52 0.53,-5.82 15.33,-23.79 33.83,-26.43 18.49,-2.64 18.49,-5.81 31.18,-20.08 12.68,-14.27 34.35,-14.8 45.98,-12.16 11.62,2.64 12.15,-5.81 10.04,-22.19 -2.12,-16.39 -5.82,-43.34 -25.9,-49.15 -20.08,-5.82 -58.66,-5.82 -64.47,-26.96 -5.82,-21.14 2.64,-28.01 11.09,-44.92 8.46,-16.91 -2.11,-13.21 10.05,-26.95 12.15,-13.74 20.08,-10.87 26.95,-22.61 6.87,-11.74 0.53,-22.84 10.57,-32.36 10.04,-9.51 22.72,-10.57 35.94,-13.21 13.21,-2.64 16.91,-4.23 20.08,-17.44 3.17,-13.21 -5.29,-23.25 15.33,-21.67 20.61,1.59 17.96,6.87 22.19,-12.68 4.23,-19.55 6.34,-25.9 6.34,-32.24 0,-6.34 -6.87,-23.25 -7.92,-29.07 -1.06,-5.81 -9.52,3.7 -4.76,-11.09 4.76,-14.8 12.68,-10.05 7.4,-29.6 -5.29,-19.55 -8.99,-30.65 -17.97,-34.88 -8.98,-4.23 -14.27,13.74 -26.42,-6.34 -12.16,-20.09 -17.44,-22.2 1.05,-36.47 18.5,-14.27 27.48,-23.25 28.01,-25.89 0.53,-2.65 -22.72,-22.2 -16.38,-38.06 6.34,-15.85 6.34,-35.93 5.81,-38.05 -0.53,-2.11 -11.62,-56.55 -13.74,-76.63 -2.11,-20.08 1.06,-21.14 -19.02,-36.99 -20.09,-15.86 -27.49,-26.43 -27.49,-40.17 0,-13.74 9.52,-28.54 2.12,-46.51 -7.4,-17.97 -26.43,-30.65 -19.03,-57.07 7.4,-26.43 33.83,-24.32 39.11,-43.34 5.29,-19.03 4.23,-69.76 8.46,-73.99 4.23,-4.23 16.91,12.68 36.99,-46.51 20.08,-59.19 30.65,-125.78 14.8,-159.6 -15.86,-33.83 -57.08,-109.93 -39.11,-160.66 17.97,-50.74 32.77,-127.9 31.71,-157.5 -1.06,-29.59 -19.03,-59.19 -32.77,-75.04 -13.74,-15.86 -8.45,-16.91 -21.14,-24.31 -12.68,-7.4 -25.36,35.93 -48.62,32.76 -23.25,-3.17 -64.47,-32.76 -106.75,-69.76 -42.28,-36.99 -72.94,-39.11 -90.9,-42.28 -17.97,-3.17 -21.14,-1.05 -34.88,-21.14 -13.75,-20.08 -6.35,-24.31 -29.6,-25.36 -23.25,-1.06 -103.58,23.25 -97.24,-4.23 6.34,-27.48 6.34,-26.43 2.11,-49.68 -4.23,-23.25 -10.57,-11.63 -4.23,-29.6 6.34,-17.97 16.91,-19.02 6.34,-24.31 -10.56,-5.28 -36.99,-3.17 -40.16,-4.23 -3.17,-1.05 3.17,-23.25 -23.25,0 -26.43,23.26 -20.09,30.66 -46.51,30.66 -26.43,0 -60.25,0 -60.25,0 0,0 11.63,-27.48 -8.46,-39.11 -20.08,-11.63 -32.76,-10.57 -39.1,-4.23 -6.35,6.34 -38.06,-4.23 -33.83,-23.25 4.23,-19.03 19.03,-14.8 21.14,-26.43 2.12,-11.62 6.34,-49.68 5.29,-69.76 -1.06,-20.08 0.53,-60.77 26.95,-68.17 26.42,-7.4 30.12,-19.56 37.52,-29.6 7.4,-10.04 29.6,-19.55 38.05,-19.55 8.46,0 13.22,4.22 16.39,-7.93 3.17,-12.16 13.21,-20.08 5.81,-26.43 -7.4,-6.34 -23.78,-7.4 -23.78,-12.15 0,-4.76 0.53,-12.16 10.04,-35.41 9.51,-23.25 10.57,-24.84 9.51,-26.43 -1.05,-1.58 -30.65,-14.79 -52.32,7.93 -21.67,22.73 -38.05,29.07 -38.05,29.07 0,0 5.29,-21.14 -10.57,-22.2 -15.85,-1.05 -25.9,-1.05 -28.54,12.16 -2.64,13.21 -15.91,37.52 -25.13,48.09 -9.22,10.57 -12.39,15.33 -12.39,15.33 0,0 -16.91,-16.39 -39.64,-22.2 -22.72,-5.81 -95.66,-8.98 -95.66,-8.98 0,0 -11.62,-17.97 -32.23,-30.66 -20.61,-12.68 -43.87,-5.81 -67.12,7.4 -23.26,13.21 -42.28,21.14 -43.87,18.5 -1.58,-2.64 -24.31,-28.01 -10.57,-50.74 13.74,-22.72 16.91,-29.59 16.91,-32.23 0,-2.65 -30.65,-32.24 -53.9,-48.1 -23.26,-15.85 -27.48,-33.29 -32.77,-41.22 -5.28,-7.93 -66.06,3.17 -84.03,-0.53 -17.97,-3.7 -74.34,-43.86 -74.34,-43.86 0,0 32.41,-35.24 40.87,-67.65 8.46,-32.41 1.41,-31 8.46,-32.41 7.04,-1.41 12.68,50.73 66.23,16.91 53.56,-33.83 107.11,-52.15 118.39,-62.01 11.27,-9.87 11.27,-18.32 7.04,-32.42 -4.22,-14.09 -28.18,-43.69 -53.55,-54.96 -25.37,-11.27 -38.05,-23.96 -35.23,-32.41 2.81,-8.46 -14.1,-243.82 -15.51,-279.05 -1.41,-35.23 -5.63,-90.2 -7.04,-98.65 -1.41,-8.46 6.34,-27.48 6.34,-27.48"
         style="fill:#ffffff;fill-opacity:1;fill-rule:nonzero;stroke:none"
         transform="matrix(0.13333333,0,0,-0.13333333,0,1122.52)" />
      <path
         id="path4"
         d="m 4718.95,4377.52 c -23.25,13.74 -60.25,24.31 -30.65,39.11 29.59,14.8 36.99,26.43 47.56,0 10.57,-26.42 7.4,-34.88 0,-39.11 -7.4,-4.22 -16.91,0 -16.91,0"
         style="fill:#ffffff;fill-opacity:1;fill-rule:nonzero;stroke:none"
         transform="matrix(0.13333333,0,0,-0.13333333,0,1122.52)" />
      <path
         id="path5"
         d="m 4640.03,4408.53 c 0,0 -11.28,-11.98 4.23,-29.6 15.5,-17.61 23.25,-23.25 26.07,-12.68 2.82,10.57 0.7,28.32 -9.87,37.77 -10.57,9.44 -20.43,4.51 -20.43,4.51"
         style="fill:#ffffff;fill-opacity:1;fill-rule:nonzero;stroke:none"
         transform="matrix(0.13333333,0,0,-0.13333333,0,1122.52)" />
      <path
         id="path6"
         d="m 4205.25,4502.25 c -16.38,11.1 -21.67,29.07 0,32.77 21.67,3.69 25.9,-1.06 26.96,-14.27 1.05,-13.22 -4.23,-20.09 -14.27,-22.73 -10.04,-2.64 -12.69,4.23 -12.69,4.23"
         style="fill:#ffffff;fill-opacity:1;fill-rule:nonzero;stroke:none"
         transform="matrix(0.13333333,0,0,-0.13333333,0,1122.52)" />
      <path
         id="path7"
         d="m 4090.87,4538.35 c 10.04,9.51 17.97,16.38 36.99,18.5 19.03,2.11 26.95,-8.99 28.54,-18.5 1.59,-9.51 -13.21,-26.95 -38.58,-22.2 -25.37,4.76 -26.95,22.2 -26.95,22.2"
         style="fill:#ffffff;fill-opacity:1;fill-rule:nonzero;stroke:none"
         transform="matrix(0.13333333,0,0,-0.13333333,0,1122.52)" />
      <path
         id="path8"
         d="m 3966.73,4296.98 c 10.04,9.51 17.97,16.38 36.99,18.5 19.03,2.11 26.96,-8.99 28.54,-18.5 1.59,-9.51 -13.21,-26.95 -38.58,-22.2 -25.37,4.76 -26.95,22.2 -26.95,22.2"
         style="fill:#ffffff;fill-opacity:1;fill-rule:nonzero;stroke:none"
         transform="matrix(0.13333333,0,0,-0.13333333,0,1122.52)" />
      <path
         id="path9"
         d="m 3765.66,4733.01 c 10.04,12.99 17.96,22.38 36.99,25.26 19.03,2.89 26.95,-12.27 28.54,-25.26 1.58,-12.99 -13.21,-36.81 -38.58,-30.31 -25.37,6.49 -26.95,30.31 -26.95,30.31"
         style="fill:#ffffff;fill-opacity:1;fill-rule:nonzero;stroke:none"
         transform="matrix(0.13333333,0,0,-0.13333333,0,1122.52)" />
      <path
         id="path10"
         d="m 4158.75,4609 c 13.21,-11.62 13.74,-20.61 25.36,-15.32 11.63,5.28 28.01,5.28 17.97,18.5 -10.04,13.21 -14.27,23.78 -32.24,18.49 -17.96,-5.28 -30.12,-7.93 -23.78,-14.8 6.34,-6.87 12.69,-6.87 12.69,-6.87"
         style="fill:#ffffff;fill-opacity:1;fill-rule:nonzero;stroke:none"
         transform="matrix(0.13333333,0,0,-0.13333333,0,1122.52)" />
      <path
         id="path11"
         d="m 4131.26,4644.41 c -11.09,12.16 -11.27,16.39 8.11,30.13 19.38,13.74 20.43,2.11 16.2,-11.1 -4.22,-13.21 -24.31,-19.03 -24.31,-19.03"
         style="fill:#ffffff;fill-opacity:1;fill-rule:nonzero;stroke:none"
         transform="matrix(0.13333333,0,0,-0.13333333,0,1122.52)" />
      <path
         id="path12"
         d="m 4569.91,4849.47 c -31.71,5.81 -54.96,13.74 -37.52,24.84 17.44,11.1 53.91,23.25 60.78,12.68 6.87,-10.57 5.28,-25.37 -6.34,-31.18 -11.63,-5.81 -16.92,-6.34 -16.92,-6.34"
         style="fill:#ffffff;fill-opacity:1;fill-rule:nonzero;stroke:none"
         transform="matrix(0.13333333,0,0,-0.13333333,0,1122.52)" />
      <path
         id="path13"
         d="m 4592.11,4927.69 c 3.17,7.92 14.51,14.27 15.45,24.31 0.93,10.04 13.62,10.57 16.26,-7.93 2.64,-18.5 11.1,-20.08 -2.64,-25.37 -13.74,-5.28 -19.43,-6.87 -21.35,-2.64 -1.91,4.23 -7.72,11.63 -7.72,11.63"
         style="fill:#ffffff;fill-opacity:1;fill-rule:nonzero;stroke:none"
         transform="matrix(0.13333333,0,0,-0.13333333,0,1122.52)" />
      <path
         id="path14"
         d="m 4535.56,4934.03 c -5.28,19.02 -11.63,30.12 5.82,31.18 17.44,1.06 23.25,3.17 30.65,-8.99 7.4,-12.15 3.7,-18.49 -5.29,-24.83 -8.98,-6.35 -13.74,-5.29 -16.91,-4.76 -3.17,0.53 -14.27,7.4 -14.27,7.4"
         style="fill:#ffffff;fill-opacity:1;fill-rule:nonzero;stroke:none"
         transform="matrix(0.13333333,0,0,-0.13333333,0,1122.52)" />
      <path
         id="path15"
         d="m 4678.36,1730.48 c 4.23,26.78 -16.91,28.19 -18.32,46.51 -1.41,18.32 4.23,25.37 18.32,25.37 14.1,0 28.19,-4.23 39.46,-25.37 11.28,-21.14 39.47,-19.73 11.28,-31 -28.19,-11.28 -36.85,-18.32 -40.27,-15.51 -3.42,2.82 -10.47,0 -10.47,0"
         style="fill:#ffffff;fill-opacity:1;fill-rule:nonzero;stroke:none"
         transform="matrix(0.13333333,0,0,-0.13333333,0,1122.52)" />
      <path
         id="path16"
         d="m 4779.83,1836.18 c 8.46,18.32 18.33,29.6 33.83,15.51 15.5,-14.1 25.37,-18.33 5.64,-29.6 -19.73,-11.28 -9.87,-2.82 -32.42,-25.37 -22.55,-22.55 -36.64,-29.59 -31,-12.68 5.63,16.91 23.95,52.14 23.95,52.14"
         style="fill:#ffffff;fill-opacity:1;fill-rule:nonzero;stroke:none"
         transform="matrix(0.13333333,0,0,-0.13333333,0,1122.52)" />
      <path
         id="path17"
         d="m 4948.2,1679.75 c -16.92,26.78 -22.55,49.33 -25.37,56.38 -2.82,7.04 18.32,11.27 33.82,-9.87 15.51,-21.14 22.55,-18.32 25.37,-35.23 2.82,-16.91 11.27,-30.84 -7.05,-27.4 -18.32,3.44 -26.77,16.12 -26.77,16.12"
         style="fill:#ffffff;fill-opacity:1;fill-rule:nonzero;stroke:none"
         transform="matrix(0.13333333,0,0,-0.13333333,0,1122.52)" />
      <path
         id="path18"
         d="m 5077.85,1708.44 c 1.41,13.59 7.05,46.01 22.55,19.23 15.51,-26.78 29.6,-18.94 9.87,-27.79 -19.73,-8.85 -22.55,-7.44 -26.78,-7.44 -4.23,0 -5.64,16 -5.64,16"
         style="fill:#ffffff;fill-opacity:1;fill-rule:nonzero;stroke:none"
         transform="matrix(0.13333333,0,0,-0.13333333,0,1122.52)" />
      <path
         id="path19"
         d="m 5119.94,1750.12 c 19.92,-4.13 42.47,-1.31 46.7,-13.99 4.23,-12.69 28.19,-21.14 23.96,0 -4.23,21.14 -29.6,36.64 -36.64,36.64 -7.05,0 -29.6,8.46 -42.28,0 -12.69,-8.46 8.26,-22.65 8.26,-22.65"
         style="fill:#ffffff;fill-opacity:1;fill-rule:nonzero;stroke:none"
         transform="matrix(0.13333333,0,0,-0.13333333,0,1122.52)" />
      <path
         id="path20"
         d="m 4567.03,1738.94 c -5.64,7.05 -7.05,45.89 18.32,27.17 25.37,-18.71 35.23,-21.53 26.78,-29.99 -8.46,-8.45 -7.05,3.34 -16.92,-6.78 -9.86,-10.13 -22.54,2.55 -28.18,9.6"
         style="fill:#ffffff;fill-opacity:1;fill-rule:nonzero;stroke:none"
         transform="matrix(0.13333333,0,0,-0.13333333,0,1122.52)" />
      <path
         id="path21"
         d="m 4466.21,1510.64 c -2.82,19.73 -38.05,26.77 -16.91,47.91 21.14,21.14 42.28,2.82 46.51,-11.27 4.22,-14.09 12.68,-28.19 1.41,-39.46 -11.28,-11.28 -31.01,2.82 -31.01,2.82"
         style="fill:#ffffff;fill-opacity:1;fill-rule:nonzero;stroke:none"
         transform="matrix(0.13333333,0,0,-0.13333333,0,1122.52)" />
      <path
         id="path22"
         d="m 4275.95,1509.23 c -11.27,2.82 -18.32,16.91 -31,15.5 -12.69,-1.41 -35.24,28.19 8.45,22.55 43.69,-5.64 45.1,-1.81 45.1,-11.48 0,-9.66 1.41,-20.94 -5.64,-26.57 -7.04,-5.64 -16.91,0 -16.91,0"
         style="fill:#ffffff;fill-opacity:1;fill-rule:nonzero;stroke:none"
         transform="matrix(0.13333333,0,0,-0.13333333,0,1122.52)" />
      <path
         id="path23"
         d="m 5107.6,2235.03 c -5.79,12.68 -17.06,37.36 5.49,29.25 22.55,-8.11 11.27,11.62 46.5,15.84 35.24,4.23 43.28,-11.27 31.51,-22.55 -11.78,-11.27 -44.19,-23.95 -54.05,-28.18 -9.87,-4.23 -29.45,5.64 -29.45,5.64"
         style="fill:#ffffff;fill-opacity:1;fill-rule:nonzero;stroke:none"
         transform="matrix(0.13333333,0,0,-0.13333333,0,1122.52)" />
      <path
         id="path24"
         d="m 5207.51,2327.14 c -25.37,12.18 -32.83,29.09 -16.41,36.13 16.41,7.05 6.55,-18.32 43.19,-15.5 36.64,2.82 47.91,2.82 39.46,-11.27 -8.46,-14.1 -16.91,-26.78 -39.46,-25.37 -22.55,1.41 -26.78,16.01 -26.78,16.01"
         style="fill:#ffffff;fill-opacity:1;fill-rule:nonzero;stroke:none"
         transform="matrix(0.13333333,0,0,-0.13333333,0,1122.52)" />
      <path
         id="path25"
         d="m 1016.64,2026.56 c -20.941,16.58 -46.245,19.2 -29.667,34.9 16.577,15.71 21.817,-0.87 35.777,16.58 13.96,17.45 34.03,42.76 34.03,42.76 0,0 43.63,-15.71 44.5,-65.45 0.87,-49.73 -20.07,-64.57 -17.45,-102.96 2.61,-38.39 0,-59.33 0,-61.95 0,-2.62 -35.78,14.83 -35.78,54.1 0,39.26 -31.41,82.02 -31.41,82.02"
         style="fill:#ffffff;fill-opacity:1;fill-rule:nonzero;stroke:none"
         transform="matrix(0.13333333,0,0,-0.13333333,0,1122.52)" />
      <path
         id="path26"
         d="m 2457.41,6580.39 c 0.79,-0.27 0.53,-11.89 13.21,-14.27 12.69,-2.38 18.5,-0.79 18.5,-0.79 0,0 -10.57,-9.78 -21.4,-22.73 -10.84,-12.95 -21.67,-16.91 -25.9,-19.02 -4.23,-2.12 -8.19,-5.29 -8.72,-1.59 -0.53,3.7 9.78,16.65 13.74,28.8 3.96,12.16 10.57,29.6 10.57,29.6"
         style="fill:#ffffff;fill-opacity:1;fill-rule:nonzero;stroke:none"
         transform="matrix(0.13333333,0,0,-0.13333333,0,1122.52)" />
      <path
         id="path27"
         d="m 2309.96,6435.05 c -0.09,0.53 -0.35,1.05 -0.72,1.57 -2.77,3.9 -12.06,7.67 -8.79,13.49 3.7,6.61 14.27,12.69 20.34,14.27 6.08,1.59 24.05,-8.72 26.17,-15.32 2.11,-6.61 8.98,-6.61 2.9,-16.12 -6.08,-9.51 -12.42,-6.08 -15.59,-8.99 -3.17,-2.9 -24.31,11.1 -24.31,11.1"
         style="fill:#ffffff;fill-opacity:1;fill-rule:nonzero;stroke:none"
         transform="matrix(0.13333333,0,0,-0.13333333,0,1122.52)" />
      <path
         id="path28"
         d="m 2357.79,6403.87 c 1.59,0 16.91,-2.11 26.16,-8.98 9.25,-6.87 14.27,-12.95 1.06,-15.33 -13.22,-2.38 -31.83,-2.11 -32.69,0.79 -0.87,2.91 5.47,23.52 5.47,23.52"
         style="fill:#ffffff;fill-opacity:1;fill-rule:nonzero;stroke:none"
         transform="matrix(0.13333333,0,0,-0.13333333,0,1122.52)" />
      <path
         id="path29"
         d="m 2470.89,6511.68 c -0.8,-3.43 -1.06,-2.37 -13.22,-17.44 -12.15,-15.06 -16.11,-17.44 -14.26,-17.96 1.85,-0.53 11.07,-4.5 17.69,1.84 6.62,6.35 11.11,5.29 14.81,13.75 3.7,8.45 -1.32,21.93 -1.32,21.93 l -3.7,-2.12"
         style="fill:#ffffff;fill-opacity:1;fill-rule:nonzero;stroke:none"
         transform="matrix(0.13333333,0,0,-0.13333333,0,1122.52)" />
      <path
         id="path30"
         d="m 2474.06,6528.07 c 1.32,2.64 1.58,6.08 8.72,12.15 7.13,6.08 5.55,-0.53 2.11,-4.75 -3.43,-4.23 -4.41,-7.4 -7.62,-7.4 -3.21,0 -3.21,0 -3.21,0"
         style="fill:#ffffff;fill-opacity:1;fill-rule:nonzero;stroke:none"
         transform="matrix(0.13333333,0,0,-0.13333333,0,1122.52)" />
      <path
         id="path31"
         d="m 2523.56,6513.8 c 4.23,-4.32 16.91,-13.07 18.32,-19.62 1.41,-6.54 -6.34,-12.88 -9.86,-7.95 -3.53,4.93 -2.82,0.4 -4.23,7.95 -1.41,7.55 -4.23,19.62 -4.23,19.62"
         style="fill:#ffffff;fill-opacity:1;fill-rule:nonzero;stroke:none"
         transform="matrix(0.13333333,0,0,-0.13333333,0,1122.52)" />
      <path
         id="path32"
         d="m 2548.22,6513.8 c 5.64,2.73 4.94,10.3 9.16,14.27 4.23,3.96 17.62,18.58 13.39,0 -4.23,-18.59 -8.45,-26.6 -11.98,-28.94 -3.52,-2.33 -4.93,-4.71 -7.04,0 -2.12,4.71 -3.53,14.67 -3.53,14.67"
         style="fill:#ffffff;fill-opacity:1;fill-rule:nonzero;stroke:none"
         transform="matrix(0.13333333,0,0,-0.13333333,0,1122.52)" />
      <path
         id="path33"
         d="m 2416.28,6453.11 c 1.58,-2.82 3.7,-10.92 12.15,-14.8 8.46,-3.87 12.16,-7.4 12.69,-3.52 0.52,3.87 1.05,6.69 -4.41,11.27 -5.46,4.58 -20.43,7.05 -20.43,7.05"
         style="fill:#ffffff;fill-opacity:1;fill-rule:nonzero;stroke:none"
         transform="matrix(0.13333333,0,0,-0.13333333,0,1122.52)" />
      <path
         id="path34"
         d="m 2415.57,6484.47 c 0.53,1.41 3.52,7.8 8.63,9.71 5.11,1.91 7.75,7.08 6.87,0 -0.88,-7.07 -5.46,-8.3 -8.28,-11.12 -2.81,-2.82 -4.75,-4.05 -5.28,-3.53 -0.53,0.53 -1.94,4.94 -1.94,4.94"
         style="fill:#ffffff;fill-opacity:1;fill-rule:nonzero;stroke:none"
         transform="matrix(0.13333333,0,0,-0.13333333,0,1122.52)" />
      <path
         id="path35"
         d="m 2420.33,6462.09 c -4.05,3.53 -7.4,7.23 -7.05,7.75 0.35,0.53 6.34,3.53 8.46,2.3 2.11,-1.24 4.05,-1.59 5.28,-5.82 1.24,-4.23 2.78,-4.05 1.83,-5.81 -0.95,-1.76 -8.52,1.58 -8.52,1.58"
         style="fill:#ffffff;fill-opacity:1;fill-rule:nonzero;stroke:none"
         transform="matrix(0.13333333,0,0,-0.13333333,0,1122.52)" />
      <path
         id="path36"
         d="m 2453.98,6451.35 c 0.52,3.87 1.23,12.86 8.1,16.03 6.87,3.17 10.75,4.93 11.98,5.99 1.23,1.06 2.29,2.99 2.46,2.11 0.18,-0.88 -1.76,-8.45 -6.51,-13.91 -4.76,-5.47 -3.53,-4.94 -7.58,-7.4 -4.05,-2.47 -8.45,-2.82 -8.45,-2.82"
         style="fill:#ffffff;fill-opacity:1;fill-rule:nonzero;stroke:none"
         transform="matrix(0.13333333,0,0,-0.13333333,0,1122.52)" />
      <text
         id="text36"
         xml:space="preserve"
         transform="matrix(1.3333333,0,0,1.3333333,467.792,449.51067)"><tspan
           id="tspan36"
           style="font-variant:normal;font-weight:normal;font-size:15.4871px;font-family:Montserrat-Regular;writing-mode:lr-tb;fill:#ffffff;fill-opacity:1;fill-rule:nonzero;stroke:none"
           x="0"
           y="0">Quần Đảo</tspan><tspan
           id="tspan37"
           style="font-variant:normal;font-weight:normal;font-size:15.4871px;font-family:Montserrat-Regular;writing-mode:lr-tb;fill:#ffffff;fill-opacity:1;fill-rule:nonzero;stroke:none"
           x="0"
           dx="0 0 -0.046337869"
           y="18.584">Hoàng Sa</tspan><tspan
           id="tspan38"
           style="font-variant:normal;font-weight:normal;font-size:15.4871px;font-family:Montserrat-Regular;writing-mode:lr-tb;fill:#ffffff;fill-opacity:1;fill-rule:nonzero;stroke:none"
           x="56.974998"
           y="286.15701">Quần Đảo</tspan><tspan
           id="tspan39"
           style="font-variant:normal;font-weight:normal;font-size:15.4871px;font-family:Montserrat-Regular;writing-mode:lr-tb;fill:#ffffff;fill-opacity:1;fill-rule:nonzero;stroke:none"
           x="56.974998"
           dx="0 -0.21674816 0 -0.30986279"
           y="304.741">Trường Sa</tspan></text>
      <path
         id="path39"
         d="m 3840.51,1124.28 c 2.04,3.07 8.18,13.29 15.34,13.29 7.15,0 38.85,-1.02 15.33,-13.29 -23.51,-12.27 -30.67,0 -30.67,0"
         style="fill:#ffffff;fill-opacity:1;fill-rule:nonzero;stroke:none"
         transform="matrix(0.13333333,0,0,-0.13333333,0,1122.52)" />
      <path
         id="path40"
         d="m 3913.1,1112.01 c 0,6.14 2.05,24.54 7.16,25.56 5.11,1.03 14.31,13.3 16.36,-4.09 2.04,-17.38 4.09,-22.49 -2.05,-25.56 -6.13,-3.07 -21.47,4.09 -21.47,4.09"
         style="fill:#ffffff;fill-opacity:1;fill-rule:nonzero;stroke:none"
         transform="matrix(0.13333333,0,0,-0.13333333,0,1122.52)" />
      <path
         id="path41"
         d="m 3874.25,1250.04 c 0,0 -10.22,22.5 0,25.56 10.22,3.07 23.52,11.25 31.7,5.12 8.18,-6.14 19.42,-2.05 13.29,-17.9 -6.14,-15.84 -6.14,-24.02 -20.45,-25.05 -14.32,-1.02 -24.54,12.27 -24.54,12.27"
         style="fill:#ffffff;fill-opacity:1;fill-rule:nonzero;stroke:none"
         transform="matrix(0.13333333,0,0,-0.13333333,0,1122.52)" />
      <path
         id="path42"
         d="m 3973.43,1308.32 c -2.05,3.07 0,21.47 8.18,21.47 8.18,0 14.31,-6.13 12.27,-16.36 -2.05,-10.22 -4.09,-14.31 -7.16,-14.31 -3.07,0 -13.29,9.2 -13.29,9.2"
         style="fill:#ffffff;fill-opacity:1;fill-rule:nonzero;stroke:none"
         transform="matrix(0.13333333,0,0,-0.13333333,0,1122.52)" />
      <path
         id="path43"
         d="m 3704.72,1682.05 c -6.13,12.27 -4.09,85.88 12.27,49.07 16.36,-36.8 14.32,-49.07 14.32,-49.07 h -26.59"
         style="fill:#ffffff;fill-opacity:1;fill-rule:nonzero;stroke:none"
         transform="matrix(0.13333333,0,0,-0.13333333,0,1122.52)" />
      <path
         id="path44"
         d="m 3833.55,1711.69 c 12.27,-5.1 36.81,-5.1 40.9,-17.37 4.09,-12.27 16.36,-30.68 -8.18,-30.68 -24.54,0 -40.9,0 -40.9,0 l 8.18,48.05"
         style="fill:#ffffff;fill-opacity:1;fill-rule:nonzero;stroke:none"
         transform="matrix(0.13333333,0,0,-0.13333333,0,1122.52)" />
      <path
         id="path45"
         d="m 3917.39,1687.67 c 8.18,10.74 7.92,41.41 24.41,43.45 16.49,2.05 26.71,4.08 24.67,-19.43 -2.05,-23.51 -8.18,-19.42 -14.32,-29.64 -6.13,-10.23 -34.76,5.62 -34.76,5.62"
         style="fill:#ffffff;fill-opacity:1;fill-rule:nonzero;stroke:none"
         transform="matrix(0.13333333,0,0,-0.13333333,0,1122.52)" />
      <path
         id="path46"
         d="m 5014.64,1428.75 c 0,0 6.13,30.36 16.36,32.57 10.22,2.2 18.4,2.2 22.49,-12.12 4.09,-14.31 0,-32.71 0,-32.71 l -38.85,12.26"
         style="fill:#ffffff;fill-opacity:1;fill-rule:nonzero;stroke:none"
         transform="matrix(0.13333333,0,0,-0.13333333,0,1122.52)" />
      <path
         id="path47"
         d="m 5114.84,1318.33 c 0,0 -30.67,28.63 -20.45,32.72 10.23,4.09 26.58,18.4 34.76,8.18 8.18,-10.23 10.23,-4.57 8.18,-18.65 -2.04,-14.07 -22.49,-22.25 -22.49,-22.25"
         style="fill:#ffffff;fill-opacity:1;fill-rule:nonzero;stroke:none"
         transform="matrix(0.13333333,0,0,-0.13333333,0,1122.52)" />
      <path
         id="path48"
         d="m 5482.92,1275.39 c 0,0 -4.09,55.21 18.41,42.94 22.49,-12.27 34.76,-40.9 36.8,-42.94 2.05,-2.05 -55.21,0 -55.21,0"
         style="fill:#ffffff;fill-opacity:1;fill-rule:nonzero;stroke:none"
         transform="matrix(0.13333333,0,0,-0.13333333,0,1122.52)" />
      <text
         id="text48"
         xml:space="preserve"
         transform="matrix(1.3333333,0,0,1.3333333,180.24533,1084.5331)"><tspan
           id="tspan48"
           style="font-variant:normal;font-weight:300;font-size:7.06863px;font-family:Montserrat-Light;writing-mode:lr-tb;fill:#ffffff;fill-opacity:1;fill-rule:nonzero;stroke:none"
           x="0"
           dx="0 0 0 0 0 0 0 -0.14855929"
           y="0">Thiết kế bởi </tspan><tspan
           id="tspan49"
           style="font-variant:normal;font-weight:300;font-size:7.06863px;font-family:Montserrat-Light;writing-mode:lr-tb;fill:#ffffff;fill-opacity:1;fill-rule:nonzero;stroke:none"
           x="0"
           dx="0 -0.098779157 0 0 0 0 0 -0.20522495 0 0 0 0 0 0 0 0 0 0 0 0 -0.01437986"
           y="8.4820299">Trung Tâm Dữ Liệu Hoàng Sa</tspan><tspan
           id="tspan50"
           style="font-variant:normal;font-weight:300;font-size:14.6815px;font-family:Montserrat-Light;writing-mode:lr-tb;fill:#ffffff;fill-opacity:1;fill-rule:nonzero;stroke:none"
           x="-109.079"
           dx="0 0 -0.029287679 0 0 -0.30819112 0 0 -0.29323065 0 -0.2054074"
           y="5.0273399">HoangSa.Org</tspan></text>
      <path
         id="path50"
         d="m 1304.92,200.082 h -9.49 v 135.879 h 9.49 V 200.082"
         style="fill:#ffffff;fill-opacity:1;fill-rule:nonzero;stroke:none"
         transform="matrix(0.13333333,0,0,-0.13333333,0,1122.52)" />
    </g>
  </g>
</svg>
